<mxfile host="app.diagrams.net" modified="2023-04-17T10:17:14.972Z" agent="Mozilla/5.0 (Windows NT 10.0; Win64; x64; rv:109.0) Gecko/20100101 Firefox/112.0" etag="wjI8bZagDovX3OpGV2Sc" version="21.1.8" type="device">
  <diagram name="1 oldal" id="mpz2fRs6T4rLCOVTgz9_">
    <mxGraphModel dx="1434" dy="782" grid="1" gridSize="10" guides="1" tooltips="1" connect="1" arrows="1" fold="1" page="1" pageScale="1" pageWidth="827" pageHeight="1169" math="0" shadow="0">
      <root>
        <mxCell id="0" />
        <mxCell id="1" parent="0" />
        <mxCell id="gnTz5vcP0z02s9mJUBKi-20" style="edgeStyle=orthogonalEdgeStyle;rounded=0;orthogonalLoop=1;jettySize=auto;html=1;exitX=0.25;exitY=1;exitDx=0;exitDy=0;entryX=0.25;entryY=0;entryDx=0;entryDy=0;" edge="1" parent="1" source="gnTz5vcP0z02s9mJUBKi-1" target="gnTz5vcP0z02s9mJUBKi-3">
          <mxGeometry relative="1" as="geometry" />
        </mxCell>
        <mxCell id="gnTz5vcP0z02s9mJUBKi-24" style="edgeStyle=orthogonalEdgeStyle;rounded=0;orthogonalLoop=1;jettySize=auto;html=1;exitX=1;exitY=0.25;exitDx=0;exitDy=0;entryX=0.25;entryY=1;entryDx=0;entryDy=0;" edge="1" parent="1" source="gnTz5vcP0z02s9mJUBKi-1" target="gnTz5vcP0z02s9mJUBKi-23">
          <mxGeometry relative="1" as="geometry" />
        </mxCell>
        <mxCell id="gnTz5vcP0z02s9mJUBKi-1" value="&lt;div&gt;Backend&lt;/div&gt;" style="rounded=1;whiteSpace=wrap;html=1;" vertex="1" parent="1">
          <mxGeometry x="220" y="130" width="120" height="60" as="geometry" />
        </mxCell>
        <mxCell id="gnTz5vcP0z02s9mJUBKi-15" style="edgeStyle=orthogonalEdgeStyle;rounded=0;orthogonalLoop=1;jettySize=auto;html=1;exitX=1;exitY=0.5;exitDx=0;exitDy=0;entryX=1;entryY=0.5;entryDx=0;entryDy=0;" edge="1" parent="1" source="gnTz5vcP0z02s9mJUBKi-2" target="gnTz5vcP0z02s9mJUBKi-3">
          <mxGeometry relative="1" as="geometry" />
        </mxCell>
        <mxCell id="gnTz5vcP0z02s9mJUBKi-2" value="&lt;div&gt;Frontend&lt;/div&gt;" style="rounded=1;whiteSpace=wrap;html=1;" vertex="1" parent="1">
          <mxGeometry x="220" y="450" width="120" height="60" as="geometry" />
        </mxCell>
        <mxCell id="gnTz5vcP0z02s9mJUBKi-9" style="edgeStyle=orthogonalEdgeStyle;rounded=0;orthogonalLoop=1;jettySize=auto;html=1;exitX=0;exitY=0.5;exitDx=0;exitDy=0;entryX=0;entryY=0.5;entryDx=0;entryDy=0;" edge="1" parent="1" source="gnTz5vcP0z02s9mJUBKi-3" target="gnTz5vcP0z02s9mJUBKi-2">
          <mxGeometry relative="1" as="geometry" />
        </mxCell>
        <mxCell id="gnTz5vcP0z02s9mJUBKi-21" style="edgeStyle=orthogonalEdgeStyle;rounded=0;orthogonalLoop=1;jettySize=auto;html=1;exitX=0.75;exitY=0;exitDx=0;exitDy=0;entryX=0.75;entryY=1;entryDx=0;entryDy=0;" edge="1" parent="1" source="gnTz5vcP0z02s9mJUBKi-3" target="gnTz5vcP0z02s9mJUBKi-1">
          <mxGeometry relative="1" as="geometry" />
        </mxCell>
        <mxCell id="gnTz5vcP0z02s9mJUBKi-3" value="Middleware" style="rounded=1;whiteSpace=wrap;html=1;" vertex="1" parent="1">
          <mxGeometry x="220" y="260" width="120" height="60" as="geometry" />
        </mxCell>
        <mxCell id="gnTz5vcP0z02s9mJUBKi-5" style="edgeStyle=orthogonalEdgeStyle;rounded=0;orthogonalLoop=1;jettySize=auto;html=1;exitX=0.5;exitY=1;exitDx=0;exitDy=0;entryX=0.5;entryY=0;entryDx=0;entryDy=0;" edge="1" parent="1" source="gnTz5vcP0z02s9mJUBKi-4" target="gnTz5vcP0z02s9mJUBKi-1">
          <mxGeometry relative="1" as="geometry" />
        </mxCell>
        <mxCell id="gnTz5vcP0z02s9mJUBKi-4" value="Adatbázis" style="rounded=1;whiteSpace=wrap;html=1;" vertex="1" parent="1">
          <mxGeometry x="220" width="120" height="60" as="geometry" />
        </mxCell>
        <mxCell id="gnTz5vcP0z02s9mJUBKi-12" value="Tokenek" style="rounded=0;whiteSpace=wrap;html=1;" vertex="1" parent="1">
          <mxGeometry x="200" y="340" width="60" height="30" as="geometry" />
        </mxCell>
        <mxCell id="gnTz5vcP0z02s9mJUBKi-13" value="Adatok" style="rounded=0;whiteSpace=wrap;html=1;" vertex="1" parent="1">
          <mxGeometry x="200" y="400" width="60" height="30" as="geometry" />
        </mxCell>
        <mxCell id="gnTz5vcP0z02s9mJUBKi-14" value="Képek" style="rounded=0;whiteSpace=wrap;html=1;" vertex="1" parent="1">
          <mxGeometry x="200" y="370" width="60" height="30" as="geometry" />
        </mxCell>
        <mxCell id="gnTz5vcP0z02s9mJUBKi-16" value="Auth" style="rounded=0;whiteSpace=wrap;html=1;" vertex="1" parent="1">
          <mxGeometry x="300" y="340" width="60" height="30" as="geometry" />
        </mxCell>
        <mxCell id="gnTz5vcP0z02s9mJUBKi-17" value="JSON" style="rounded=0;whiteSpace=wrap;html=1;" vertex="1" parent="1">
          <mxGeometry x="300" y="400" width="60" height="30" as="geometry" />
        </mxCell>
        <mxCell id="gnTz5vcP0z02s9mJUBKi-18" value="Kép(ek)" style="rounded=0;whiteSpace=wrap;html=1;" vertex="1" parent="1">
          <mxGeometry x="300" y="370" width="60" height="30" as="geometry" />
        </mxCell>
        <mxCell id="gnTz5vcP0z02s9mJUBKi-25" style="edgeStyle=orthogonalEdgeStyle;rounded=0;orthogonalLoop=1;jettySize=auto;html=1;exitX=0.75;exitY=1;exitDx=0;exitDy=0;entryX=1;entryY=0.75;entryDx=0;entryDy=0;" edge="1" parent="1" source="gnTz5vcP0z02s9mJUBKi-23" target="gnTz5vcP0z02s9mJUBKi-1">
          <mxGeometry relative="1" as="geometry" />
        </mxCell>
        <mxCell id="gnTz5vcP0z02s9mJUBKi-23" value="&lt;div&gt;Uploads&lt;/div&gt;&lt;div&gt;mappa&lt;br&gt;&lt;/div&gt;" style="rounded=1;whiteSpace=wrap;html=1;" vertex="1" parent="1">
          <mxGeometry x="400" width="120" height="60" as="geometry" />
        </mxCell>
        <mxCell id="gnTz5vcP0z02s9mJUBKi-26" value="Képek" style="rounded=0;whiteSpace=wrap;html=1;" vertex="1" parent="1">
          <mxGeometry x="430" y="90" width="60" height="20" as="geometry" />
        </mxCell>
        <mxCell id="gnTz5vcP0z02s9mJUBKi-27" value="Adatok" style="rounded=0;whiteSpace=wrap;html=1;" vertex="1" parent="1">
          <mxGeometry x="280" y="80" width="94" height="20" as="geometry" />
        </mxCell>
        <mxCell id="gnTz5vcP0z02s9mJUBKi-28" value="Kérések feldolgozása" style="rounded=0;whiteSpace=wrap;html=1;" vertex="1" parent="1">
          <mxGeometry x="80" y="200" width="170" height="20" as="geometry" />
        </mxCell>
        <mxCell id="gnTz5vcP0z02s9mJUBKi-29" value="Authorizáció szükség esetén" style="rounded=0;whiteSpace=wrap;html=1;" vertex="1" parent="1">
          <mxGeometry x="80" y="220" width="170" height="20" as="geometry" />
        </mxCell>
        <mxCell id="gnTz5vcP0z02s9mJUBKi-30" value="Képek feltöltése" style="rounded=0;whiteSpace=wrap;html=1;" vertex="1" parent="1">
          <mxGeometry x="310" y="200" width="120" height="20" as="geometry" />
        </mxCell>
        <mxCell id="gnTz5vcP0z02s9mJUBKi-31" value="Adatok küldése" style="rounded=0;whiteSpace=wrap;html=1;" vertex="1" parent="1">
          <mxGeometry x="310" y="220" width="120" height="20" as="geometry" />
        </mxCell>
        <mxCell id="gnTz5vcP0z02s9mJUBKi-32" value="XHR" style="rounded=0;whiteSpace=wrap;html=1;" vertex="1" parent="1">
          <mxGeometry x="260" y="340" width="40" height="90" as="geometry" />
        </mxCell>
      </root>
    </mxGraphModel>
  </diagram>
</mxfile>
